[img]http://img825.imageshack.us/img825/8154/hoodlm.jpg[/img]
[code]
Hoodwinked.Too-Hood.Vs.Evil.2011.DVDRip.XVID.AC3.HQ.Hive-CM8


Thx Hive


CM8 Doing It Right The First Time 

Source DVD-R big thx SiC

DVD had great quality,just a bit dark, added brightness,sharpness,rgb,denoise
looks like a BDRip now in every way
enjoy


Video: 720x400 @bitrate 2200 2pass
Audio: English AC3 5.1 @448
Sample: yes included
Subs: yes english in srt /subs

 
http://www.imdb.com/title/tt0844993/


General
Complete name                    : Hoodwinked.Too-Hood.Vs.Evil.2011.DVDRip.XVID.AC3.HQ.Hive-CM8.avi
Format                           : AVI
Format/Info                      : Audio Video Interleave
File size                        : 1.60 GiB
Duration                         : 1h 26mn
Overall bit rate                 : 2 656 Kbps
Writing application              : Nandub v1.0rc2
Writing library                  : Nandub build 1853/release

Video
ID                               : 0
Format                           : MPEG-4 Visual
Format profile                   : Advanced Simple@L5
Format settings, BVOP            : 2
Format settings, QPel            : Yes
Format settings, GMC             : No warppoints
Format settings, Matrix          : Default (H.263)
Muxing mode                      : Packed bitstream
Codec ID                         : XVID
Codec ID/Hint                    : XviD
Duration                         : 1h 26mn
Bit rate                         : 2 199 Kbps
Width                            : 720 pixels
Height                           : 400 pixels
Display aspect ratio             : 16:9
Frame rate                       : 23.976 fps
Color space                      : YUV
Chroma subsampling               : 4:2:0
Bit depth                        : 8 bits
Scan type                        : Progressive
Compression mode                 : Lossy
Bits/(Pixel*Frame)               : 0.318
Stream size                      : 1.33 GiB (83%)
Writing library                  : XviD 1.2.1 (UTC 2008-12-04)

Audio
ID                               : 1
Format                           : AC-3
Format/Info                      : Audio Coding 3
Mode extension                   : CM (complete main)
Codec ID                         : 2000
Duration                         : 1h 26mn
Bit rate mode                    : Constant
Bit rate                         : 448 Kbps
Channel(s)                       : 6 channels
Channel positions                : Front: L C R, Side: L R, LFE
Sampling rate                    : 48.0 KHz
Bit depth                        : 16 bits
Compression mode                 : Lossy
Stream size                      : 277 MiB (17%)
Alignment                        : Split accross interleaves
Interleave, duration             : 42 ms (1.00 video frame)
Interleave, preload duration     : 500 ms



Glenn Close	... Granny Puckett (voice)
Hayden Panettiere	... Red Riding Hood (voice)
Cheech Marin	... Mad Hog (voice)
Patrick Warburton	... The Big Bad Wolf (voice)
Joan Cusack	... Verushka the Witch (voice)
Tommy Chong	... Stone (voice)


Red Riding Hood is training in the group of Sister Hoods, when she and the Wolf 
are called to examine the sudden mysterious disappearance of Hansel and Gretel. 
[/code]
Screens:
[img]http://img814.imageshack.us/img814/3703/79072784.png[/img]
[img]http://img143.imageshack.us/img143/5746/74013603.png[/img]
[img]http://img29.imageshack.us/img29/64/58011651.png[/img]
[img]http://img148.imageshack.us/img148/7417/78437261.png[/img]
[img]http://img269.imageshack.us/img269/8779/68310401.png[/img]